<?xml version="1.0" encoding="utf-8"?>
<!-- Generator: Adobe Illustrator 22.1.0, SVG Export Plug-In . SVG Version: 6.00 Build 0)  -->
<svg version="1.1" id="レイヤー_1" xmlns="http://www.w3.org/2000/svg" xmlns:xlink="http://www.w3.org/1999/xlink" x="0px"
	 y="0px" viewBox="0 0 512 160" style="enable-background:new 0 0 512 160;" xml:space="preserve">
<style type="text/css">
	.st0{fill:#FFFFFF;}
	.st1{enable-background:new    ;}
</style>
<title>アートボード 3</title>
<path class="st0" d="M13.9,104.9c-7.3,0-11.3-8.9-11.3-25c0-9.5,2.4-21.8,4.6-32.6c1.5-7.7,2.9-14.3,2.9-17.9
	c0-5.2-1.4-10.4-4.1-14.9c-1-1.8-1.2-3.2-0.6-4.3c0.5-0.8,1.3-1.2,2.2-1.2c0.8,0,1.7,0.2,2.4,0.6c5.3,2.2,11,7.5,11,14
	c0,3.1-1.1,8.1-2.3,13c-0.1,0.6,0.2,1.2,0.8,1.3c0.1,0,0.2,0,0.3,0c0.3,0,0.6-0.1,0.9-0.4c6.9-7.9,15.3-14.3,24.8-18.6
	c6.5-3.1,16.8-6.2,25.5-6.2c2.3-0.1,4.6,0.6,6.4,2.2c0.2,0.2,0.5,0.3,0.8,0.3c0.1,0,0.2,0,0.3,0c0.4-0.1,0.7-0.4,0.8-0.8
	c2.1-8,10.3-12.8,18.3-10.7s12.8,10.3,10.7,18.3C106.2,30.2,98,35,90,32.9c-5.3-1.4-9.4-5.6-10.7-10.9c-0.1-0.4-0.4-0.7-0.7-0.8
	c-0.1,0-0.2-0.1-0.4-0.1c-0.3,0-0.5,0.1-0.7,0.2c-1.7,1.4-5,1.8-8.2,2.2C53.7,25.4,42.1,29.5,33.7,36c-11.2,8.7-19.6,23.4-19.6,34.2
	C14,78.2,15.1,86.3,17.4,94c0.7,2.2,1.1,4.4,1.3,6.7C18.7,104.4,15.7,104.9,13.9,104.9z M93.8,10.7c-4.2,0-7.7,3.4-7.7,7.6
	s3.4,7.7,7.6,7.7s7.7-3.4,7.7-7.6c0,0,0-0.1,0-0.1C101.5,14.1,98.1,10.7,93.8,10.7C93.9,10.7,93.9,10.7,93.8,10.7z M92.2,102.2
	c-3.6,0-5.4-2.4-7.7-5.6l-0.7-0.9c-2.5-3.5-5.4-6.6-8.7-9.4c-0.2-0.2-0.5-0.3-0.7-0.3c-0.1,0-0.2,0-0.3,0c-0.4,0.1-0.6,0.4-0.8,0.7
	c-2.7,7.8-8.7,11.6-18.4,11.6c-7.9,0-16-5-16-13.4c0-10.3,10.6-14,17.7-14c3.2,0,6.4,0.3,9.6,1h0.2c0.6,0,1.1-0.4,1.1-1
	c0.1-1.7,0.2-3.3,0.2-5.2c0-2.8-0.2-6.1-0.4-9.3c0-0.3-0.2-0.6-0.5-0.8c-0.2-0.1-0.4-0.2-0.6-0.2c-0.1,0-0.2,0-0.3,0
	c-4,1.2-8.2,1.9-12.4,2c-8.5,0-17.2-4.8-17.2-13.9c0-3.3,1.5-3.8,2.4-3.8c1,0.1,1.9,0.5,2.5,1.3c0.8,0.8,1.5,1.5,2.2,2.2
	c4,4,5.8,5.8,10.3,5.8c3.9,0,7.7-0.8,11.2-2.4c0.5-0.2,0.8-0.7,0.7-1.3c-0.2-0.8-0.4-1.6-0.7-2.4c-0.7-1.9-1.6-3.7-2.8-5.3
	c-1-1.5-1.8-2.7-1.8-3.9c0-2,3.2-5,7.1-5c3.5,0,5.9,2.2,6.4,6c0,0.2,0.1,0.4,0.3,0.6c1.3,1.4,2.8,1.7,4.8,1.7c0.4,0,0.9,0,1.3,0
	s1,0,1.5,0c0.4,0,0.9,0,1.3,0.1c3.3,0.3,4.8,1.8,4.8,4.8c0,3.4-3.8,6.6-12,10.1c-0.4,0.2-0.7,0.6-0.7,1.1c0.3,4.8,0.5,9.4,0.5,12.2
	s0,5.7-0.2,9.1c0,0.5,0.2,0.9,0.7,1.1c5.8,2.7,11,6.4,15.5,11c3.2,3.2,5.3,7.3,5.3,10.4C96.9,100.1,95.1,102.2,92.2,102.2z
	 M56.1,78.2c-5.6,0-8.8,1.9-8.8,5.3c0,3.1,2.8,4.9,7.6,4.9c5.9,0,9.3-2.1,11.1-6.8c0.2-0.6-0.1-1.2-0.6-1.4
	C62.4,78.9,59.2,78.3,56.1,78.2L56.1,78.2z"/>
<path class="st0" d="M165.7,103.8c-1.6,0.1-3-1-3.3-2.6c-0.2-1.6,0.9-3.2,2.5-3.5c12.8-4,21.3-8.2,24.8-16.8
	c0.2-0.4,0.1-0.9-0.2-1.2c-0.2-0.2-0.5-0.4-0.8-0.4c-0.1,0-0.2,0-0.3,0.1c-1.6,0.5-3.3,0.7-5,0.7c-9.2,0-14.4-5.4-14.4-15.3
	c0-10.6,6.6-17.8,16.5-17.8c0.6,0,1.2,0,1.8,0.1h0.1c0.3,0,0.6-0.1,0.8-0.3c0.2-0.2,0.4-0.5,0.4-0.8c0,0-0.1-6-0.1-6.6
	c0-0.3-0.1-0.6-0.4-0.9c-0.2-0.2-0.5-0.2-0.7-0.2c-0.1,0-0.1,0-0.2,0c-7.2,1.3-14.2,3-21.2,5.1c-0.9,0.3-2,0.6-3.1,1
	c-4.6,1.5-10.1,3.3-14.5,3.3H148c-5.5-0.1-12.9-6.5-12.9-12.8c0-2.8,1.8-3,2.4-3c0.8,0.1,1.7,0.3,2.4,0.8l0.8,0.5c3.4,2,5.2,3,8.8,3
	s12.7-1.7,23.2-3.6c4.9-0.9,9.8-1.8,14.7-2.7c0.6-0.1,0.9-0.6,0.9-1.1c-0.1-3-0.2-5.1-0.3-6.4c-0.4-5.2-0.5-5.9-2.5-7l-1.1-0.5
	c-2.2-1.1-4.6-2.3-4.6-4.3c0-2.3,2.5-3.8,6.4-3.8c3.1,0,7.7,0.7,10.6,2.8s2.7,4.4,1.9,9.7c-0.3,2.1-0.6,4.7-0.9,7.6
	c0,0.3,0.1,0.7,0.4,0.9c0.2,0.2,0.5,0.3,0.8,0.3h0.2c11.3-1.7,20.5-2.8,24.6-2.8c7.2,0,12.6,3.7,12.6,8.6c0,1.6-0.7,4.2-5.4,4.2
	c-1.7-0.1-3.4-0.3-5-0.6c-4.9-0.9-10-1.4-15-1.4c-4.1,0-8.2,0.3-12.3,0.7c-0.6,0.1-1,0.5-1,1.1c0,1.6,0,3.3,0,5.2
	c0,2.9-0.1,6-0.1,9.1c0,0.3,0.1,0.5,0.3,0.7c3.2,3.8,4.8,9.7,4.8,17.5c0,19-13.3,31.3-36.4,33.6
	C166.1,103.7,165.9,103.7,165.7,103.8L165.7,103.8z M184.6,54.1c-3.9,0-6.9,3.7-6.9,8.7s2,7.2,6.2,7.2c4.4,0,6.5-2.1,6.7-6.5
	c0-1.7-0.2-3.4-0.4-5.1c0-0.1,0-0.2-0.1-0.2C188.9,55.4,187.2,54.1,184.6,54.1z"/>
<path class="st0" d="M301.2,104.2c-13.9,0-28.8-5.5-29.3-20.8c-0.3-12.6,5.3-21.9,17.4-28.4c0.3-0.2,0.5-0.4,0.6-0.8
	c0.1-0.3,0-0.7-0.2-0.9c-2-2.6-3.1-5.8-2.9-9.1c0-3.1,0.2-7.8,0.3-12.3c0.1-4.1,0.3-7.9,0.3-10.1c0-3.5-0.6-4.5-2.2-5.5
	c-0.5-0.3-1.1-0.6-1.6-0.9c-2.1-1.2-3.5-2.1-3.5-3.9c0-2.7,4-4.2,6.8-4.2c6.6,0,13.6,4,13.6,10.6c-0.3,3.3-0.8,6.7-1.5,9.9
	c-1.1,5.4-2.3,11.6-2.3,15.9c0,4.5,0.9,6.2,3.2,6.2h0.2c1.4-0.1,2.7-0.5,4-1.2c2.6-1.2,5.4-1.9,8.3-2h0.4c5.8,0,10.2,2.7,10.2,6.3
	c0,5.2-6.4,6.8-11.8,7.3c-1.3,0.1-3,0.2-4.7,0.3c-2.4,0.1-5.1,0.3-7.4,0.5c-10.1,1-17.4,9.1-17,19c0.4,10.2,8,12.2,19.2,12.2
	c4.5-0.1,9-0.7,13.4-1.8c2.3-0.6,4.6-1,7-1.1c4.9,0,8.4,2.3,8.4,5.7C329.9,101,319.7,104.2,301.2,104.2z"/>
<path class="st0" d="M369.1,70.7c-5.3,0-10.8-7.3-10.8-12.6c0-1.8,1-3,2.5-3c0.7,0,1.4,0.2,2,0.6c0.4,0.2,0.8,0.5,1.2,0.8
	c2.2,1.5,4.5,3,7.4,3c5.5,0,29.2-2.4,36.5-3.4c4-0.5,6.6-1,8.8-1.4c2.3-0.5,4.7-0.8,7.1-0.8c4.9,0,12,2.8,12,8c0,1.2-0.5,4-5.4,4
	c-1.7,0-3-0.1-4.5-0.2c-2.1-0.2-4.7-0.3-9.4-0.3c-8.2,0-30.4,2.6-35.5,3.5c-1.6,0.3-3.1,0.6-4.5,0.8
	C374.1,70.3,371.6,70.7,369.1,70.7z"/>
<path class="st0" d="M502.7,105.5c-2.9,0-4.7-2.7-6.3-5.7c-2.3-4.4-5-8.5-8.3-12.2c-4-4.8-13.6-13.6-18.6-18
	c-2.8-2.4-6.5-6.2-6.5-11.1c0-4.6,2.6-8.6,6.8-13.6c1.7-2.1,4-4.8,6.4-7.7l0.1-0.1c4.3-5.1,9.2-10.9,12.2-14.9
	c2.7-3.5,2.6-5.8,2.2-7.4c-0.3-0.9-0.6-1.8-0.9-2.8c-0.3-0.7-0.5-1.3-0.6-2c-0.3-0.9-0.1-1.9,0.5-2.7c0.5-0.6,1.3-0.9,2.1-0.9
	c0.6,0,1.2,0.1,1.8,0.3c4.3,1.6,7.9,4.7,10.2,8.7c2.4,4.1,1.7,6.5-2.9,10.9l-5.4,5.1l-0.4,0.3c-7.1,6.7-15,14.2-19.2,18.7
	c-2.7,2.9-4,4.5-4,6.7c0,1.6,2.1,4,6.2,7c7.2,5.2,14.1,10.8,20.8,16.7c6.8,6.3,10,12.2,10,17.9C508.8,103.4,505.7,105.5,502.7,105.5
	z"/>
<g class="st1">
	<path class="st0" d="M107.1,136.1c0,0.9-0.2,1.7-0.5,2.4s-0.8,1.3-1.4,1.8c-0.6,0.5-1.2,0.8-2,1.1s-1.6,0.4-2.4,0.4h-5.6v10.7h-0.7
		v-21.7h5.9c0.8,0,1.6,0.1,2.4,0.3s1.5,0.5,2.2,0.9c0.6,0.4,1.2,1,1.6,1.7C106.9,134.2,107.1,135.1,107.1,136.1z M106.4,136.1
		c0-0.9-0.2-1.7-0.5-2.3c-0.3-0.6-0.8-1.1-1.3-1.5c-0.6-0.4-1.2-0.6-1.9-0.8c-0.7-0.2-1.4-0.2-2-0.2h-5.5v9.9h5.6
		c0.7,0,1.3-0.1,2-0.3c0.7-0.2,1.3-0.5,1.8-0.9c0.5-0.4,1-0.9,1.3-1.6C106.3,137.8,106.4,137,106.4,136.1z"/>
	<path class="st0" d="M151.7,141.5c0,1.7-0.3,3.2-0.8,4.6c-0.6,1.4-1.3,2.6-2.3,3.6c-1,1-2.2,1.8-3.5,2.4c-1.4,0.6-2.9,0.9-4.4,0.9
		s-3.1-0.3-4.4-0.9c-1.4-0.6-2.5-1.4-3.5-2.4c-1-1-1.8-2.2-2.3-3.6c-0.6-1.4-0.8-2.9-0.8-4.6c0-1.7,0.3-3.2,0.8-4.6
		c0.6-1.4,1.3-2.6,2.3-3.6c1-1,2.2-1.8,3.5-2.4c1.4-0.6,2.8-0.9,4.5-0.9s3.1,0.3,4.5,0.9c1.4,0.6,2.5,1.4,3.5,2.4
		c1,1,1.8,2.2,2.3,3.6C151.4,138.3,151.7,139.9,151.7,141.5z M151,141.5c0-1.5-0.3-2.9-0.8-4.2c-0.5-1.3-1.2-2.5-2.2-3.4
		c-0.9-1-2-1.8-3.3-2.3c-1.3-0.6-2.7-0.8-4.2-0.8c-1.5,0-2.9,0.3-4.2,0.8c-1.3,0.6-2.4,1.3-3.3,2.3c-0.9,1-1.7,2.1-2.2,3.4
		c-0.5,1.3-0.8,2.7-0.8,4.2c0,1.5,0.2,2.9,0.8,4.2c0.5,1.3,1.2,2.5,2.1,3.4c0.9,1,2,1.8,3.3,2.3c1.3,0.6,2.7,0.8,4.3,0.8
		c1.6,0,3-0.3,4.3-0.8c1.3-0.6,2.4-1.3,3.3-2.3c0.9-1,1.6-2.1,2.1-3.4C150.8,144.5,151,143.1,151,141.5z"/>
	<path class="st0" d="M187.6,147.2c0,0.9-0.2,1.7-0.5,2.5c-0.4,0.7-0.8,1.3-1.4,1.8c-0.6,0.5-1.3,0.9-2.1,1.1
		c-0.8,0.3-1.7,0.4-2.5,0.4c-1.3,0-2.6-0.2-3.7-0.7c-1.1-0.5-2-1.1-2.8-1.9l0.5-0.5c0.8,0.8,1.7,1.5,2.7,1.9c1,0.4,2.1,0.6,3.2,0.6
		c0.8,0,1.6-0.1,2.3-0.4c0.7-0.2,1.3-0.6,1.9-1c0.6-0.4,1-1,1.3-1.6c0.3-0.6,0.5-1.4,0.5-2.2c0-0.8-0.2-1.5-0.5-2.1
		c-0.3-0.6-0.8-1.1-1.3-1.5c-0.6-0.4-1.2-0.8-1.9-1c-0.7-0.3-1.4-0.5-2.1-0.8c-0.9-0.3-1.7-0.6-2.5-0.9c-0.7-0.3-1.4-0.7-1.9-1.2
		c-0.5-0.5-1-1-1.3-1.7c-0.3-0.6-0.4-1.4-0.4-2.3c0-0.9,0.2-1.7,0.5-2.4c0.4-0.7,0.8-1.3,1.5-1.8c0.6-0.5,1.3-0.8,2.1-1.1
		c0.8-0.3,1.7-0.4,2.6-0.4c1.1,0,2.1,0.2,3.1,0.6c1,0.4,1.8,1,2.4,1.8l-0.5,0.5c-0.6-0.7-1.3-1.3-2.2-1.7c-0.9-0.4-1.9-0.6-2.9-0.6
		c-0.7,0-1.5,0.1-2.2,0.3c-0.7,0.2-1.3,0.5-1.9,0.9c-0.6,0.4-1,0.9-1.4,1.6c-0.3,0.6-0.5,1.4-0.5,2.2c0,0.8,0.2,1.5,0.5,2.1
		s0.7,1.1,1.2,1.5c0.5,0.4,1.1,0.7,1.7,1c0.6,0.3,1.3,0.5,2,0.7c0.9,0.3,1.8,0.6,2.6,0.9c0.8,0.3,1.5,0.7,2.1,1.1
		c0.6,0.5,1.1,1,1.4,1.6C187.4,145.5,187.6,146.3,187.6,147.2z"/>
	<path class="st0" d="M216.3,131.3v21.1h-0.7v-21.1h-7.4v-0.6h15.4v0.6H216.3z"/>
	<path class="st0" d="M275.8,131.3v21.1h-0.7v-21.1h-7.4v-0.6h15.4v0.6H275.8z"/>
	<path class="st0" d="M319.4,152.4l-2.6-6.2h-12.6l-2.7,6.2h-0.7l9.4-21.7h0.9l9,21.7H319.4z M310.6,131.1l-6.2,14.5h12.1
		L310.6,131.1z"/>
	<path class="st0" d="M342.3,152.4v-21.7h0.7v21.1h10.8v0.6H342.3z"/>
	<path class="st0" d="M376.7,140.7l10.9-10h1l-11,10l11.6,11.7h-1L376.7,140.7L376.7,140.7l0,11.7H376v-21.7h0.7L376.7,140.7
		L376.7,140.7z"/>
</g>
</svg>
