<svg id="レイヤー_1" data-name="レイヤー 1" xmlns="http://www.w3.org/2000/svg" viewBox="0 0 512 160"><defs><style>.cls-1,.cls-2{fill:#320;}.cls-2{font-size:30.65px;font-family:AvenirNext-UltraLight, Avenir Next;letter-spacing:0.6em;}</style></defs><title>アートボード 3</title><path class="cls-1" d="M13.9,104.93c-7.27,0-11.27-8.87-11.27-25,0-9.51,2.44-21.76,4.59-32.56,1.53-7.67,2.85-14.28,2.85-17.86A29.27,29.27,0,0,0,6,14.6c-1-1.76-1.18-3.24-.57-4.27A2.51,2.51,0,0,1,7.68,9.15a6.25,6.25,0,0,1,2.41.57c5.28,2.2,11,7.52,11,14,0,3.15-1.11,8.11-2.3,13a1.12,1.12,0,0,0,1.09,1.38,1.13,1.13,0,0,0,.85-.39A73.65,73.65,0,0,1,45.54,19.07C52,16,62.39,12.82,71.06,12.82A8.75,8.75,0,0,1,77.41,15a1.14,1.14,0,0,0,.8.34.92.92,0,0,0,.29,0,1.14,1.14,0,0,0,.8-.79,15,15,0,1,1-.06,7.44,1.11,1.11,0,0,0-.72-.78,1.13,1.13,0,0,0-.36-.06,1.12,1.12,0,0,0-.7.24c-1.72,1.35-5,1.84-8.16,2.21C53.74,25.43,42.1,29.49,33.72,36c-11.2,8.72-19.64,23.41-19.64,34.18A83.46,83.46,0,0,0,17.38,94a28.22,28.22,0,0,1,1.3,6.74C18.68,104.39,15.69,104.93,13.9,104.93ZM93.85,10.69a7.68,7.68,0,1,0,7.62,7.62A7.6,7.6,0,0,0,93.85,10.69ZM92.2,102.21c-3.58,0-5.38-2.45-7.66-5.55l-.68-.92a52.58,52.58,0,0,0-8.68-9.41,1.12,1.12,0,0,0-.72-.26,1.54,1.54,0,0,0-.3,0,1.12,1.12,0,0,0-.75.72C70.72,94.64,64.7,98.43,55,98.43c-7.86,0-16-5-16-13.4,0-10.26,10.56-14,17.65-14a46.84,46.84,0,0,1,9.55,1l.23,0a1.12,1.12,0,0,0,1.12-1c.1-1.68.15-3.29.15-5.22,0-2.79-.16-6.1-.44-9.33a1.09,1.09,0,0,0-.47-.82,1.15,1.15,0,0,0-.64-.2,1,1,0,0,0-.3,0,49.81,49.81,0,0,1-12.38,2c-8.54,0-17.18-4.77-17.18-13.88,0-3.33,1.52-3.83,2.43-3.83A3.88,3.88,0,0,1,41.24,41c.82.79,1.55,1.51,2.24,2.19,4,4,5.85,5.78,10.34,5.78A27.87,27.87,0,0,0,65,46.6a1.13,1.13,0,0,0,.66-1.27,19.38,19.38,0,0,0-.69-2.43,20.37,20.37,0,0,0-2.84-5.31c-1-1.5-1.83-2.68-1.83-3.93,0-2,3.2-5,7.14-5,3.54,0,5.92,2.23,6.38,6a1.15,1.15,0,0,0,.28.61c1.31,1.43,2.84,1.73,4.75,1.73.45,0,.9,0,1.34,0s1,0,1.51,0a11.78,11.78,0,0,1,1.34.07c3.26.34,4.77,1.85,4.77,4.77,0,3.36-3.81,6.57-12,10.1a1.13,1.13,0,0,0-.67,1.1c.3,4.84.49,9.39.49,12.19s0,5.74-.16,9.14a1.12,1.12,0,0,0,.65,1.07,53.45,53.45,0,0,1,15.48,11c3.21,3.21,5.28,7.28,5.28,10.36C96.86,100.07,95.08,102.21,92.2,102.21Zm-36.14-24c-5.59,0-8.8,1.92-8.8,5.26,0,3.11,2.78,4.9,7.62,4.9,5.9,0,9.32-2.1,11.08-6.82a1.12,1.12,0,0,0-.62-1.43A24.66,24.66,0,0,0,56.06,78.24Z"/><path class="cls-1" d="M165.73,103.76a3.14,3.14,0,0,1-3.27-2.57A3.28,3.28,0,0,1,165,97.66c12.75-4,21.34-8.19,24.8-16.77a1.11,1.11,0,0,0-.21-1.18,1.15,1.15,0,0,0-.82-.36,1.27,1.27,0,0,0-.34.05,16.53,16.53,0,0,1-5,.73c-9.25,0-14.35-5.43-14.35-15.29,0-10.63,6.62-17.77,16.47-17.77.63,0,1.23,0,1.79.07h.09a1.12,1.12,0,0,0,.76-.3,1.15,1.15,0,0,0,.36-.83s-.08-6-.09-6.62a1.13,1.13,0,0,0-.4-.86,1.19,1.19,0,0,0-.72-.25.71.71,0,0,0-.2,0,209.14,209.14,0,0,0-21.23,5.06c-.94.28-2,.63-3.13,1-4.55,1.49-10.11,3.31-14.47,3.31h-.35c-5.5-.13-12.89-6.49-12.89-12.81,0-2.83,1.83-3.05,2.39-3.05a4.82,4.82,0,0,1,2.37.79l.81.47c3.38,2,5.24,3,8.78,3s12.72-1.67,23.19-3.6c4.88-.9,9.79-1.81,14.73-2.66a1.12,1.12,0,0,0,.92-1.15c-.1-3-.2-5.13-.28-6.39-.36-5.2-.49-5.91-2.49-7l-1.05-.53c-2.17-1.08-4.61-2.29-4.61-4.35,0-2.33,2.52-3.84,6.43-3.84,3.1,0,7.73.74,10.58,2.81s2.66,4.36,1.87,9.69c-.34,2.13-.63,4.7-.86,7.62a1.12,1.12,0,0,0,.35.91,1.14,1.14,0,0,0,.76.3l.17,0c11.33-1.73,20.52-2.77,24.57-2.77,7.17,0,12.57,3.68,12.57,8.56,0,1.57-.7,4.19-5.37,4.19a31.54,31.54,0,0,1-5-.61,80.75,80.75,0,0,0-15-1.4,115.41,115.41,0,0,0-12.29.71,1.12,1.12,0,0,0-1,1.11c0,1.57,0,3.32,0,5.17,0,2.9-.06,6.05-.06,9.12a1.14,1.14,0,0,0,.26.72c3.19,3.84,4.82,9.72,4.82,17.48,0,19-13.28,31.27-36.44,33.59a2.82,2.82,0,0,1-.4,0Zm18.83-49.61c-3.94,0-6.91,3.73-6.91,8.68s2,7.15,6.2,7.15c4.35,0,6.47-2.06,6.68-6.49a35.42,35.42,0,0,0-.42-5.08,2.17,2.17,0,0,0-.07-.24C188.92,55.43,187.18,54.15,184.56,54.15Z"/><path class="cls-1" d="M301.22,104.24c-13.85,0-28.83-5.48-29.32-20.84-.34-12.58,5.34-21.89,17.35-28.44a1.14,1.14,0,0,0,.58-.77,1.16,1.16,0,0,0-.2-.94,13.53,13.53,0,0,1-2.92-9.07c0-3.07.17-7.78.33-12.34.15-4.07.28-7.89.28-10.06,0-3.5-.56-4.49-2.16-5.52-.55-.34-1.09-.64-1.58-.92-2.12-1.19-3.48-2.08-3.48-3.85,0-2.72,4-4.22,6.79-4.22,6.57,0,13.65,4.05,13.65,10.59A65.2,65.2,0,0,1,299,27.79c-1.09,5.42-2.33,11.56-2.33,15.9,0,4.51.88,6.19,3.25,6.19h.18a11.62,11.62,0,0,0,4-1.17,20.72,20.72,0,0,1,8.3-2h.43c5.8,0,10.18,2.71,10.18,6.31,0,5.25-6.44,6.85-11.84,7.28-1.32.1-2.95.18-4.69.26-2.44.12-5.15.26-7.42.47-10.1,1-17.38,9.14-16.95,19,.44,10.15,8,12.23,19.17,12.23a58.2,58.2,0,0,0,13.37-1.82,33.88,33.88,0,0,1,7-1.12c4.94,0,8.39,2.34,8.39,5.69C329.93,101,319.73,104.24,301.22,104.24Z"/><path class="cls-1" d="M369.08,70.74c-5.34,0-10.76-7.31-10.76-12.56,0-1.79,1-3,2.53-3a3.72,3.72,0,0,1,2,.64c.4.25.81.52,1.23.8,2.23,1.46,4.53,3,7.36,3,5.52,0,29.19-2.44,36.46-3.39,4-.51,6.62-1,8.76-1.39a36.56,36.56,0,0,1,7.07-.84c4.92,0,12,2.85,12,8,0,1.2-.52,4-5.35,4-1.66,0-3-.09-4.51-.2-2.11-.15-4.74-.33-9.39-.33-8.24,0-30.44,2.63-35.46,3.48-1.65.26-3.11.55-4.52.83A39.11,39.11,0,0,1,369.08,70.74Z"/><path class="cls-1" d="M502.71,105.5c-2.9,0-4.74-2.73-6.3-5.67a64,64,0,0,0-8.26-12.22c-4-4.82-13.62-13.62-18.65-18-2.81-2.44-6.53-6.24-6.53-11.12,0-4.56,2.59-8.58,6.76-13.59,1.71-2.09,4-4.78,6.41-7.66l.1-.11c4.32-5.13,9.23-10.95,12.24-14.87,2.71-3.52,2.58-5.81,2.17-7.42a28.55,28.55,0,0,0-.91-2.75,14.26,14.26,0,0,1-.64-2,3.1,3.1,0,0,1,.5-2.72,2.64,2.64,0,0,1,2.11-.91,5.46,5.46,0,0,1,1.8.34,19.6,19.6,0,0,1,10.18,8.67c2.37,4.14,1.74,6.49-2.92,10.92l-5.43,5.15-.36.34c-7.07,6.69-15,14.24-19.2,18.67-2.69,2.92-3.95,4.53-3.95,6.68,0,1.61,2.07,4,6.16,7a265.84,265.84,0,0,1,20.76,16.73c6.76,6.29,10,12.16,10,17.94C508.79,103.44,505.74,105.5,502.71,105.5Z"/><text class="cls-2" transform="translate(91.25 152.4)">POST TALK</text></svg>