<svg enable-background="new 0 0 512 160" viewBox="0 0 512 160" xmlns="http://www.w3.org/2000/svg"><g fill="#fff"><path d="m13.9 104.9c-7.3 0-11.3-8.9-11.3-25 0-9.5 2.4-21.8 4.6-32.6 1.5-7.7 2.9-14.3 2.9-17.9 0-5.2-1.4-10.4-4.1-14.9-1-1.8-1.2-3.2-.6-4.3.5-.8 1.3-1.2 2.2-1.2.8 0 1.7.2 2.4.6 5.3 2.2 11 7.5 11 14 0 3.1-1.1 8.1-2.3 13-.1.6.2 1.2.8 1.3h.3c.3 0 .6-.1.9-.4 6.9-7.9 15.3-14.3 24.8-18.6 6.5-3.1 16.8-6.2 25.5-6.2 2.3-.1 4.6.6 6.4 2.2.2.2.5.3.8.3h.3c.4-.1.7-.4.8-.8 2.1-8 10.3-12.8 18.3-10.7s12.8 10.3 10.7 18.3c-2.1 8.2-10.3 13-18.3 10.9-5.3-1.4-9.4-5.6-10.7-10.9-.1-.4-.4-.7-.7-.8-.1 0-.2-.1-.4-.1-.3 0-.5.1-.7.2-1.7 1.4-5 1.8-8.2 2.2-15.6 1.9-27.2 6-35.6 12.5-11.2 8.7-19.6 23.4-19.6 34.2-.1 8 1 16.1 3.3 23.8.7 2.2 1.1 4.4 1.3 6.7 0 3.7-3 4.2-4.8 4.2zm79.9-94.2c-4.2 0-7.7 3.4-7.7 7.6s3.4 7.7 7.6 7.7 7.7-3.4 7.7-7.6v-.1c.1-4.2-3.3-7.6-7.6-7.6.1 0 .1 0 0 0zm-1.6 91.5c-3.6 0-5.4-2.4-7.7-5.6l-.7-.9c-2.5-3.5-5.4-6.6-8.7-9.4-.2-.2-.5-.3-.7-.3-.1 0-.2 0-.3 0-.4.1-.6.4-.8.7-2.7 7.8-8.7 11.6-18.4 11.6-7.9 0-16-5-16-13.4 0-10.3 10.6-14 17.7-14 3.2 0 6.4.3 9.6 1h.2c.6 0 1.1-.4 1.1-1 .1-1.7.2-3.3.2-5.2 0-2.8-.2-6.1-.4-9.3 0-.3-.2-.6-.5-.8-.2-.1-.4-.2-.6-.2-.1 0-.2 0-.3 0-4 1.2-8.2 1.9-12.4 2-8.5 0-17.2-4.8-17.2-13.9 0-3.3 1.5-3.8 2.4-3.8 1 .1 1.9.5 2.5 1.3l2.2 2.2c4 4 5.8 5.8 10.3 5.8 3.9 0 7.7-.8 11.2-2.4.5-.2.8-.7.7-1.3-.2-.8-.4-1.6-.7-2.4-.7-1.9-1.6-3.7-2.8-5.3-1-1.5-1.8-2.7-1.8-3.9 0-2 3.2-5 7.1-5 3.5 0 5.9 2.2 6.4 6 0 .2.1.4.3.6 1.3 1.4 2.8 1.7 4.8 1.7h1.3s1 0 1.5 0c.4 0 .9 0 1.3.1 3.3.3 4.8 1.8 4.8 4.8 0 3.4-3.8 6.6-12 10.1-.4.2-.7.6-.7 1.1.3 4.8.5 9.4.5 12.2s0 5.7-.2 9.1c0 .5.2.9.7 1.1 5.8 2.7 11 6.4 15.5 11 3.2 3.2 5.3 7.3 5.3 10.4 0 3.2-1.8 5.3-4.7 5.3zm-36.1-24c-5.6 0-8.8 1.9-8.8 5.3 0 3.1 2.8 4.9 7.6 4.9 5.9 0 9.3-2.1 11.1-6.8.2-.6-.1-1.2-.6-1.4-3-1.3-6.2-1.9-9.3-2z"/><path d="m165.7 103.8c-1.6.1-3-1-3.3-2.6-.2-1.6.9-3.2 2.5-3.5 12.8-4 21.3-8.2 24.8-16.8.2-.4.1-.9-.2-1.2-.2-.2-.5-.4-.8-.4-.1 0-.2 0-.3.1-1.6.5-3.3.7-5 .7-9.2 0-14.4-5.4-14.4-15.3 0-10.6 6.6-17.8 16.5-17.8.6 0 1.2 0 1.8.1h.1c.3 0 .6-.1.8-.3s.4-.5.4-.8c0 0-.1-6-.1-6.6 0-.3-.1-.6-.4-.9-.2-.2-.5-.2-.7-.2-.1 0-.1 0-.2 0-7.2 1.3-14.2 3-21.2 5.1-.9.3-2 .6-3.1 1-4.6 1.5-10.1 3.3-14.5 3.3h-.4c-5.5-.1-12.9-6.5-12.9-12.8 0-2.8 1.8-3 2.4-3 .8.1 1.7.3 2.4.8l.8.5c3.4 2 5.2 3 8.8 3s12.7-1.7 23.2-3.6c4.9-.9 9.8-1.8 14.7-2.7.6-.1.9-.6.9-1.1-.1-3-.2-5.1-.3-6.4-.4-5.2-.5-5.9-2.5-7l-1.1-.5c-2.2-1.1-4.6-2.3-4.6-4.3 0-2.3 2.5-3.8 6.4-3.8 3.1 0 7.7.7 10.6 2.8s2.7 4.4 1.9 9.7c-.3 2.1-.6 4.7-.9 7.6 0 .3.1.7.4.9.2.2.5.3.8.3h.2c11.3-1.7 20.5-2.8 24.6-2.8 7.2 0 12.6 3.7 12.6 8.6 0 1.6-.7 4.2-5.4 4.2-1.7-.1-3.4-.3-5-.6-4.9-.9-10-1.4-15-1.4-4.1 0-8.2.3-12.3.7-.6.1-1 .5-1 1.1v5.2c0 2.9-.1 6-.1 9.1 0 .3.1.5.3.7 3.2 3.8 4.8 9.7 4.8 17.5 0 19-13.3 31.3-36.4 33.6-.2-.3-.4-.3-.6-.2zm18.9-49.7c-3.9 0-6.9 3.7-6.9 8.7s2 7.2 6.2 7.2c4.4 0 6.5-2.1 6.7-6.5 0-1.7-.2-3.4-.4-5.1 0-.1 0-.2-.1-.2-1.2-2.8-2.9-4.1-5.5-4.1z"/><path d="m301.2 104.2c-13.9 0-28.8-5.5-29.3-20.8-.3-12.6 5.3-21.9 17.4-28.4.3-.2.5-.4.6-.8.1-.3 0-.7-.2-.9-2-2.6-3.1-5.8-2.9-9.1 0-3.1.2-7.8.3-12.3.1-4.1.3-7.9.3-10.1 0-3.5-.6-4.5-2.2-5.5-.5-.3-1.1-.6-1.6-.9-2.1-1.2-3.5-2.1-3.5-3.9 0-2.7 4-4.2 6.8-4.2 6.6 0 13.6 4 13.6 10.6-.3 3.3-.8 6.7-1.5 9.9-1.1 5.4-2.3 11.6-2.3 15.9 0 4.5.9 6.2 3.2 6.2h.2c1.4-.1 2.7-.5 4-1.2 2.6-1.2 5.4-1.9 8.3-2h.4c5.8 0 10.2 2.7 10.2 6.3 0 5.2-6.4 6.8-11.8 7.3-1.3.1-3 .2-4.7.3-2.4.1-5.1.3-7.4.5-10.1 1-17.4 9.1-17 19 .4 10.2 8 12.2 19.2 12.2 4.5-.1 9-.7 13.4-1.8 2.3-.6 4.6-1 7-1.1 4.9 0 8.4 2.3 8.4 5.7-.2 5.9-10.4 9.1-28.9 9.1z"/><path d="m369.1 70.7c-5.3 0-10.8-7.3-10.8-12.6 0-1.8 1-3 2.5-3 .7 0 1.4.2 2 .6.4.2.8.5 1.2.8 2.2 1.5 4.5 3 7.4 3 5.5 0 29.2-2.4 36.5-3.4 4-.5 6.6-1 8.8-1.4 2.3-.5 4.7-.8 7.1-.8 4.9 0 12 2.8 12 8 0 1.2-.5 4-5.4 4-1.7 0-3-.1-4.5-.2-2.1-.2-4.7-.3-9.4-.3-8.2 0-30.4 2.6-35.5 3.5-1.6.3-3.1.6-4.5.8-2.4.6-4.9 1-7.4 1z"/><path d="m502.7 105.5c-2.9 0-4.7-2.7-6.3-5.7-2.3-4.4-5-8.5-8.3-12.2-4-4.8-13.6-13.6-18.6-18-2.8-2.4-6.5-6.2-6.5-11.1 0-4.6 2.6-8.6 6.8-13.6 1.7-2.1 4-4.8 6.4-7.7l.1-.1c4.3-5.1 9.2-10.9 12.2-14.9 2.7-3.5 2.6-5.8 2.2-7.4-.3-.9-.6-1.8-.9-2.8-.3-.7-.5-1.3-.6-2-.3-.9-.1-1.9.5-2.7.5-.6 1.3-.9 2.1-.9.6 0 1.2.1 1.8.3 4.3 1.6 7.9 4.7 10.2 8.7 2.4 4.1 1.7 6.5-2.9 10.9l-5.4 5.1-.4.3c-7.1 6.7-15 14.2-19.2 18.7-2.7 2.9-4 4.5-4 6.7 0 1.6 2.1 4 6.2 7 7.2 5.2 14.1 10.8 20.8 16.7 6.8 6.3 10 12.2 10 17.9-.1 4.7-3.2 6.8-6.2 6.8z"/><g enable-background="new"><path d="m107.1 136.1c0 .9-.2 1.7-.5 2.4s-.8 1.3-1.4 1.8-1.2.8-2 1.1-1.6.4-2.4.4h-5.6v10.7h-.7v-21.7h5.9c.8 0 1.6.1 2.4.3s1.5.5 2.2.9c.6.4 1.2 1 1.6 1.7.3.5.5 1.4.5 2.4zm-.7 0c0-.9-.2-1.7-.5-2.3s-.8-1.1-1.3-1.5c-.6-.4-1.2-.6-1.9-.8s-1.4-.2-2-.2h-5.5v9.9h5.6c.7 0 1.3-.1 2-.3s1.3-.5 1.8-.9 1-.9 1.3-1.6c.4-.6.5-1.4.5-2.3z"/><path d="m151.7 141.5c0 1.7-.3 3.2-.8 4.6-.6 1.4-1.3 2.6-2.3 3.6s-2.2 1.8-3.5 2.4c-1.4.6-2.9.9-4.4.9s-3.1-.3-4.4-.9c-1.4-.6-2.5-1.4-3.5-2.4s-1.8-2.2-2.3-3.6c-.6-1.4-.8-2.9-.8-4.6s.3-3.2.8-4.6c.6-1.4 1.3-2.6 2.3-3.6s2.2-1.8 3.5-2.4c1.4-.6 2.8-.9 4.5-.9s3.1.3 4.5.9 2.5 1.4 3.5 2.4 1.8 2.2 2.3 3.6c.3 1.4.6 3 .6 4.6zm-.7 0c0-1.5-.3-2.9-.8-4.2s-1.2-2.5-2.2-3.4c-.9-1-2-1.8-3.3-2.3-1.3-.6-2.7-.8-4.2-.8s-2.9.3-4.2.8c-1.3.6-2.4 1.3-3.3 2.3s-1.7 2.1-2.2 3.4-.8 2.7-.8 4.2.2 2.9.8 4.2c.5 1.3 1.2 2.5 2.1 3.4.9 1 2 1.8 3.3 2.3 1.3.6 2.7.8 4.3.8s3-.3 4.3-.8c1.3-.6 2.4-1.3 3.3-2.3s1.6-2.1 2.1-3.4c.6-1.2.8-2.6.8-4.2z"/><path d="m187.6 147.2c0 .9-.2 1.7-.5 2.5-.4.7-.8 1.3-1.4 1.8s-1.3.9-2.1 1.1c-.8.3-1.7.4-2.5.4-1.3 0-2.6-.2-3.7-.7s-2-1.1-2.8-1.9l.5-.5c.8.8 1.7 1.5 2.7 1.9s2.1.6 3.2.6c.8 0 1.6-.1 2.3-.4.7-.2 1.3-.6 1.9-1s1-1 1.3-1.6.5-1.4.5-2.2-.2-1.5-.5-2.1-.8-1.1-1.3-1.5c-.6-.4-1.2-.8-1.9-1-.7-.3-1.4-.5-2.1-.8-.9-.3-1.7-.6-2.5-.9-.7-.3-1.4-.7-1.9-1.2s-1-1-1.3-1.7c-.3-.6-.4-1.4-.4-2.3s.2-1.7.5-2.4c.4-.7.8-1.3 1.5-1.8.6-.5 1.3-.8 2.1-1.1s1.7-.4 2.6-.4c1.1 0 2.1.2 3.1.6s1.8 1 2.4 1.8l-.5.5c-.6-.7-1.3-1.3-2.2-1.7s-1.9-.6-2.9-.6c-.7 0-1.5.1-2.2.3s-1.3.5-1.9.9-1 .9-1.4 1.6c-.3.6-.5 1.4-.5 2.2s.2 1.5.5 2.1.7 1.1 1.2 1.5 1.1.7 1.7 1 1.3.5 2 .7c.9.3 1.8.6 2.6.9s1.5.7 2.1 1.1c.6.5 1.1 1 1.4 1.6.2 1 .4 1.8.4 2.7z"/><path d="m216.3 131.3v21.1h-.7v-21.1h-7.4v-.6h15.4v.6z"/><path d="m275.8 131.3v21.1h-.7v-21.1h-7.4v-.6h15.4v.6z"/><path d="m319.4 152.4-2.6-6.2h-12.6l-2.7 6.2h-.7l9.4-21.7h.9l9 21.7zm-8.8-21.3-6.2 14.5h12.1z"/><path d="m342.3 152.4v-21.7h.7v21.1h10.8v.6z"/><path d="m376.7 140.7 10.9-10h1l-11 10 11.6 11.7h-1l-11.5-11.7v11.7h-.7v-21.7h.7z"/></g></g></svg>