<svg id="レイヤー_2" data-name="レイヤー 2" xmlns="http://www.w3.org/2000/svg" viewBox="0 0 512 160" style=""><defs><style>.cls-1{fill:none;stroke:#c90;stroke-linecap:round;stroke-linejoin:round;stroke-width:4px;}</style></defs><title>アートボード 3</title><path class="cls-1 tIDNDGYN_0" d="M9.9,14.3c6.52,4.38,8.41,13.46,2.27,34.29-6.72,22.84-6.59,40.93.41,50.73-7.84-7.89-5.89-36.56,7.91-56,18.86-26.59,53-24.65,53-24.65"></path><path class="cls-1 tIDNDGYN_1" d="M83.09,18.36A10.77,10.77 0,1,1 104.63,18.36A10.77,10.77 0,1,1 83.09,18.36"></path><path class="cls-1 tIDNDGYN_2" d="M38.68,43.15C41,49.54,56.4,60,83.13,42.28c-5.23,1.45-13.66-2-16.56-8.42,4.36,8.71,11.06,50.24-4.36,58.38-20.91,11-26.43-15.1-11-18s35.15,9,40.67,22.37"></path><path class="cls-1 tIDNDGYN_3" d="M140.64,38.79c9.87,7.56,72.91-15.1,90-5.81"></path><path class="cls-1 tIDNDGYN_4" d="M189.15,10.91c8.13,3.19,3.19,26.14,3.77,35.15s2.62,29.33-11.33,28.75-10.35-27,5.81-24.11c18,3.2,15.4,47.93-21.2,50"></path><path class="cls-1 tIDNDGYN_5" d="M288.2,12.07c12.49,1.74-1.75,35.15,7.26,41.54S319,54.77,319,52.74s-20.63-2.62-33.41,10.45-10.16,31.37,5.23,34,29.92-.58,32.53-2"></path><path class="cls-1 tIDNDGYN_6" d="M365.73,63.46c6,3.92,56.56-7.11,63-3.2"></path><path class="cls-1 tIDNDGYN_7" d="M495.22,12.82c7.63,6.67-27.88,37.5-27.65,44.18.32,9.21,35,26.69,35,42"></path><style data-made-with="vivus-instant">.tIDNDGYN_0{stroke-dasharray:210 212;stroke-dashoffset:211;animation:tIDNDGYN_draw 1333ms ease 0ms forwards;}.tIDNDGYN_1{stroke-dasharray:68 70;stroke-dashoffset:69;animation:tIDNDGYN_draw 1333ms ease 95ms forwards;}.tIDNDGYN_2{stroke-dasharray:223 225;stroke-dashoffset:224;animation:tIDNDGYN_draw 1333ms ease 190ms forwards;}.tIDNDGYN_3{stroke-dasharray:92 94;stroke-dashoffset:93;animation:tIDNDGYN_draw 1333ms ease 285ms forwards;}.tIDNDGYN_4{stroke-dasharray:184 186;stroke-dashoffset:185;animation:tIDNDGYN_draw 1333ms ease 380ms forwards;}.tIDNDGYN_5{stroke-dasharray:183 185;stroke-dashoffset:184;animation:tIDNDGYN_draw 1333ms ease 476ms forwards;}.tIDNDGYN_6{stroke-dasharray:64 66;stroke-dashoffset:65;animation:tIDNDGYN_draw 1333ms ease 571ms forwards;}.tIDNDGYN_7{stroke-dasharray:110 112;stroke-dashoffset:111;animation:tIDNDGYN_draw 1333ms ease 666ms forwards;}@keyframes tIDNDGYN_draw{100%{stroke-dashoffset:0;}}@keyframes tIDNDGYN_fade{0%{stroke-opacity:1;}93.54838709677419%{stroke-opacity:1;}100%{stroke-opacity:0;}}</style></svg>