<svg id="レイヤー_1" data-name="レイヤー 1" xmlns="http://www.w3.org/2000/svg" viewBox="0 0 64 64"><defs><style>.cls-1{fill:#c90;}</style></defs><title>favicon</title><path class="cls-1" d="M61.93,25.51c0-.52-.11-1-.19-1.56s-.18-1-.33-1.53l-.2-.76L61,20.91a19.4,19.4,0,0,0-3-5.5,23.16,23.16,0,0,0-4.37-4.26A30.89,30.89,0,0,0,43.05,6.2a40,40,0,0,0-5.57-1.08A40.42,40.42,0,0,0,31.9,4.9a48.91,48.91,0,0,0-11,1.29A29,29,0,0,0,10.22,11,20,20,0,0,0,3.1,20.85,21.62,21.62,0,0,0,2,26.74c0,.49-.05,1,0,1.45s0,.95,0,1.42c0,.95.13,1.9.25,2.84A31.65,31.65,0,0,0,12.7,52.06a29.7,29.7,0,0,0,9.63,5.78c.44.16.89.32,1.34.45s.91.26,1.37.37.93.21,1.4.31l.17,0,.24,0c.18,0,.33.05.52.06a4.5,4.5,0,0,0,1.2-.05l.34-.06.36-.11a3.94,3.94,0,0,0,.76-.35,3.32,3.32,0,0,0,1.49-3.9,4.07,4.07,0,0,0-.91-1.48l-.32-.37a2.13,2.13,0,0,1-.25-.34,1.73,1.73,0,0,1-.21-.34,2.81,2.81,0,0,1-.17-.35,2.21,2.21,0,0,1-.19-1.23,1.09,1.09,0,0,1,.38-.68,2.44,2.44,0,0,1,1.1-.43c.14,0,.25,0,.4,0l.44,0h1.28A44.69,44.69,0,0,0,44,47.88,29.24,29.24,0,0,0,54.26,43a20.76,20.76,0,0,0,4.21-4.31,18.15,18.15,0,0,0,2.74-5.56,18.8,18.8,0,0,0,.64-3.05A23.88,23.88,0,0,0,62,27C62,26.55,62,26,61.93,25.51ZM22.45,13.23a37.26,37.26,0,0,1,4.64-.63,47.88,47.88,0,0,1,4.81-.1c1.63,0,3.18.14,4.74.29a36.69,36.69,0,0,1,4.58.72,27.16,27.16,0,0,1,5.26,1.79l-1.59,1.8-4.55,5.08-4.6,5-1.16,1.26c-.36.39-.85.92-1,1.05a2.53,2.53,0,0,1-1.69.65,2.63,2.63,0,0,1-1.66-.68c-.13-.13-.62-.67-1-1.06l-1.15-1.26-4.6-5q-3.26-3.6-6.46-7.21A25,25,0,0,1,22.45,13.23ZM55.36,29.35a13.4,13.4,0,0,1-.35,2,13.19,13.19,0,0,1-4.53,6.87,23.54,23.54,0,0,1-8.1,4.19A39.19,39.19,0,0,1,32.9,44l-.61,0-.69,0-.85.07c-.28,0-.58.11-.87.16a7.36,7.36,0,0,0-3.5,1.78c-.25.26-.5.54-.73.82s-.39.62-.57.95-.28.68-.39,1-.15.7-.2,1a7.11,7.11,0,0,0,.62,3.66l-1-.38a24.9,24.9,0,0,1-7.79-5.08,26.6,26.6,0,0,1-5.5-7.5A25.84,25.84,0,0,1,8.3,31.76q-.11-1.16-.12-2.31c0-.39,0-.78,0-1.16s0-.76.07-1.13A15.63,15.63,0,0,1,9.19,23a13,13,0,0,1,2-3.6l.31-.36q4,3.56,8,7.15l5,4.61,1.25,1.15c.45.4.73.7,1.47,1.3a7.65,7.65,0,0,0,9.26,0c.73-.6,1-.9,1.46-1.3l1.25-1.15,5-4.6,5.08-4.55L52,19.21c.17.18.35.37.5.56a12.34,12.34,0,0,1,2.06,3.46l.18.47.14.48a8.28,8.28,0,0,1,.25,1,12.23,12.23,0,0,1,.25,2.05C55.41,27.94,55.4,28.69,55.36,29.35Z"/></svg>